<svg width="44" height="44" viewBox="0 0 44 44" fill="none" xmlns="http://www.w3.org/2000/svg">
<path d="M22 39.0959C21.5722 39.0959 21.1444 39.0195 20.7166 38.8667C20.2889 38.7139 19.9069 38.4847 19.5708 38.1792C17.5847 36.3459 15.8278 34.5584 14.3 32.8167C12.7722 31.075 11.4965 29.3868 10.4729 27.7521C9.44929 26.1174 8.67012 24.5438 8.1354 23.0313C7.60067 21.5188 7.33331 20.075 7.33331 18.7C7.33331 14.1167 8.80762 10.4653 11.7562 7.74585C14.7048 5.02641 18.1194 3.66669 22 3.66669C25.8805 3.66669 29.2951 5.02641 32.2437 7.74585C35.1923 10.4653 36.6666 14.1167 36.6666 18.7C36.6666 20.075 36.3993 21.5188 35.8646 23.0313C35.3298 24.5438 34.5507 26.1174 33.5271 27.7521C32.5035 29.3868 31.2278 31.075 29.7 32.8167C28.1722 34.5584 26.4153 36.3459 24.4291 38.1792C24.093 38.4847 23.7111 38.7139 23.2833 38.8667C22.8555 39.0195 22.4278 39.0959 22 39.0959ZM22 22C23.0083 22 23.8715 21.641 24.5896 20.9229C25.3076 20.2049 25.6666 19.3417 25.6666 18.3334C25.6666 17.325 25.3076 16.4618 24.5896 15.7438C23.8715 15.0257 23.0083 14.6667 22 14.6667C20.9916 14.6667 20.1285 15.0257 19.4104 15.7438C18.6923 16.4618 18.3333 17.325 18.3333 18.3334C18.3333 19.3417 18.6923 20.2049 19.4104 20.9229C20.1285 21.641 20.9916 22 22 22Z" fill="#FAB217"/>
</svg>
